/* XPM */
static char *result[] = {
/* columns rows colors chars-per-pixel */
"64 64 20 1 ",
"  c #4BC03F",
". c #59C43A",
"X c #5EC639",
"o c #67CA36",
"O c #6CCB35",
"+ c #79D130",
"@ c #27B24B",
"# c #22B04C",
"$ c #22B14C",
"% c #23B14C",
"& c #22B14D",
"* c #B0E51E",
"= c #B5E61D",
"- c #83D42D",
"; c #8CD72A",
": c #9EDE24",
"> c #91D929",
", c #A2DF23",
"< c #A7E121",
"1 c #ACE320",
/* pixels */
"$$$$$$$$$$$$$$$$$$$$$$$$$$$$$$$$$$$$$$$$$$$$$$$$$$$$$$$$$$$$$$$$",
"$$$$$$$$$$$$$$$$$$$$$$$$$$$$$$$$$$$$$$$$$$$$$$$$$$$$$$$$$$$$$$$$",
"$$$$$$$$$$$$$$$$$$$$$$$$$$$$$$$$$$$$$$$$$$$$$$$$$$$$$$$$$$$$$$$$",
"$$$$$$$$$$$$$$$$$$$$$$$$$$$$$$$$$$$$$$$$$$$$$$$$$$$$$$$$$$$$$$$$",
"$$$$$ ,,.$$$ ,,.$$$$$$$$$$$$$$$$$$$$$$$$$$$$$$$$$$$$$$$$$$$$$$$$",
"$$$$ 1==*$$$<==*$$X>o$$$$$$$$$$$$$$$$$$$$$$$$$$$$$$$$$$$$$$$$$$$",
"$$$ 1====$$X====$X==*$$$$$$$$$$$$$$$$ ,,.$$$ >.$$$$$$$$$$$$$$$$$",
"$$ 1=====$.1==== 1===$$$$$$$$$$$$$$$ 1==*$$ 1=*$$$$$$$$$$$$$$$$$",
" ,==============1====$$$$$$$$$$$$$$$<====$ 1===$$$ >.$$$$$$$$$$$",
",====+*==============$$$$$$$$$$$$$$ ===== 1====$$ 1=*$$$$$$$$$$$",
"o===+$o====-@*=======$$$$$$$$$$$$$ 1=====1=====$.1===$$$$$$$$$$$",
"$$$$$$$$$$$$$o===+===$$$$$$$$$$$$$<============,=====$$$$$$$$$$$",
"$$$$$$$$$$$$$$$$$$*==$$$$$$$$$$$$ ===+*====+=========$$$$$$$$$$$",
"$$$$$$$$$$$$$$$$$$o=+$$$$$$$$$$$$,===$o===+$*====-===$$$$$$$$$$$",
"$$$$$$$$$$$$$$$$$$$$$$$$$$$$$$$$$o==+$$$$$$$o===+$===$$$$$$$$$$$",
"$$$$$$$$$$$$$$$$$$$$$$$$$$$$$$$$$$$$$$$$$$$$$$$$$$===$$$$$$$$$$$",
"$$$$$$$$$$$$$$$$$$$$$$$$$$$$$$$$$$$$$$$$$$$$$$$$$$===$$$$$$$$$$$",
"$$$$$$$$$$$$$$$$$$$$$$$$$$$$$$$$$$$$$$$$$$$$$$$$$$===$$$$$$$$$$$",
"$$$$$$$$$$$$$$$$$$$$$$$$$$$$$$$$$$$$$$$$$$$$$$$$$$===.$$$$$$$$$$",
"$$$$$$$$$$$$$$$$$$ ,,.$$$$$$$$$$$$$$$$$$$$$$$$$$$$*==*$$$$$$$$$$",
"$$$$$$$$$$$$$$$$$ 1==*$$$$$$$$$$$$$$$$$$$$$$$$$$$$o===$$$$$$$$$$",
"$$$$$$$$$$$$$$$$ 1====$$$$$$$$$$$$$$$$$$$$$$$$$$$$$o=+$$$$$$$$$$",
"$$$$$$$$$$$$$$$ 1=====$$$$$$$$$ >.$$$$$$$$$$$$$$$$$$$$$$$$$$$$$$",
"$$$$$$$$$$$$$$ 1======$$$ ,,.$$<=*$$$$$$$$$$$$$$$$$$$$$$$$$$$$$$",
"$$$$$$$$$$$$$ 1===+===$$ 1==*$X===$$$$$$$$$$$$$$$$$$$$$$$$$$$$$$",
"$$$$$$$$$$$$ 1===+$===$.1====.1===$$$$$$$$$$$$$$$$$$$$$$$$$$$$$$",
"$$$$$$$$$$$ 1===+$$===============$$$$$$$$$$$$$$$$$$$$$$$$$$$$$$",
"$$$$$$$$$$$,===+$$$*==============$$$$$$$$$$$$$$$$$$$$$$$$$$$$$$",
"$$$$$$$$$$$o==+$$$$o====-@*======+$$$$$$$$$$$$$$$$$$$$$$$$$$$$$$",
"$$$$$$$$$$$$$$$$$$$$$$$$$$o==+===$$$$$$$$$$$$$$$$$$$$$$$$$$$$$$$",
"$$$$$$$$$$$$$$$$$$$$$$$$$$$$$$===$$$$$$$$$$$$$$$$$$$$$$$$$$$$$$$",
"$$$$$$$$$$$$$$$$$$$$$$$$$$$$$$===$$$$$$$$$$$$$$$$$$$$$$$$$$$$$$$",
"$$$$$$$$$$$$$$$$$$$$$$$$$$$$$$===$$$$$$$$$$$$$$$$$$$$$$$$$$$$$$$",
"$$$$$$$$$$$$$$$$$$$$$$$$$$$$$$*==$$$$$$$$$$$$$$$$$$$ >.$$$$$$$$$",
"$$$$$$$$$$$$$$$$$$$$$$$$$$$$$$o=+$$$$$$$$$$$$$$$$$$ 1=*$$$$$$$$$",
"$$$$$$$$$$$$$$$$$$$$$$$$$$$$$$$$$$$$$$$$$$$$ ,,.$$$<===$$$$$$$$$",
"$$$$$$$$$$$$$$$$$$$$$$$$$$$$$$$$$$$$$$$$$$$$<==*$$X====.$ ,,.$$$",
"$$$$$$$$$$%#$$$$$$$$$$$$$$$$$$$$$$$$$$$$$$$ ====$$<====*$<==*$$$",
"$$$$$$$$$$$$$$$$$$$$$$$$$$$$$$$$$$$$$$$$$$$<====. ====== ====$$$",
"$$$$$$$$$$$$$$$$$$$$$$$$$$$$$$$$$$$$$$$$$$ =====*<======1====$$$",
"$$$$$$$$$$$$$$$$$$$$$$$$$$$$$$$$$$$$$$$$$$<=========+========$$$",
"$$$$$$$$$$$$$$$$$$$$$$$$$$$$$$$$$$$$$$$$$$===+=====-$*=======$$$",
"$$$$$$$$$$$$$$$$$$$$$$$$$$$$$$$$$$$$$$$$$X===$*===;@$o===+===$$$",
"$$$$$$$$$$$$$$$$$$$$$$$$$$$$$$$$$$$$$$$$ 1==-$o==-@$$$$$$$===$$$",
"$$$$$$$$$$$$$$$$$$$$$$$$$$$$$$$$$$$$$$$$<===@$$$$$$$$$$$$$===$$$",
"$$$$$$$$$$$$$$$$$$$$$$$$$$$$$$$$$$$$$$$$===+$$$$$$$$$$$$$$*==$$$",
"$$$$$$$$$$$$$ ,,.$$$$ ,,.$$$$$$$$$$$$$$$*==$$$$$$$$$$$$$$$o=+$$$",
"$$$$$$$$$$$$ 1==*$$$ 1==*$$$$$$$$$$$$$$$o=+$$$$$$$$$$$$$$$$$$$$$",
"$$$$$$$$$$$ 1====$$$<====$$$ >.$$$$$$$$$$$$$$$$$$$$$$$$$$$$$$$$$",
"$$$&$$$$$$ 1=====$$O=====$$ 1=*$$$$$$$$$$$$$$$$$$$$$$$$$$$$$$$$$",
"$$$$$$$$$ 1====== ,======$ 1===$$$$$$$$$$$$$$$$$$$$$$$$$$$$$$$$$",
"$$$$$$$$ 1===========;=== 1====$$$$$$$$$$$$$$$$$$$$$$$$$$$$$$$$$",
"$$$$$$$ 1===+=======-@===1=====$$$$$$$$$$$$$$$$$$$$$$$$$$$$$$$$$",
"$$$$$$ 1===+#*=====+$$=========$$$$$$$$$$$$$$$$$$$$$$$$$$$$$$$$$",
"$$$$$$<===+$$o===+$$$$*====:===$$$$$$$$$$$$$$$$$$$$$$$$$$$$$$$$$",
"$$$$$ ===+$$$$$$$$$$$$o===+<===$$$$$$$$$$$$$$$$$$$$$$$$$$$$$$$$$",
"$$$$$,===$$$$$$$$$$$$$$$$$$===+$$$$$$$$$$$$$$$$$$$$$$$$$$$$$$$$$",
"$$$$$o==+$$$$$$$$$$$$$$$$$$===$$$$$$$$$$$$$$$$$$$$$$$$$$$$$$$$$$",
"$$$$$$$$$$$$$$$$$$$$$$$$$$$===$$$$$$$$$$$$$$$$$$$$$$$$$$$$$$$$$$",
"$$$$$$$$$$$$$$$$$$$$$$$$$$$*==$$$$$$$$$$$$$$$$$$$$$$$$$$$$$$$$$$",
"$$$$$$$$$$$$$$$$$$$$$$$$$$$o=+$$$$$$$$$$$$$$$$$$$$$$$$$$$$$$$$$$",
"$$$$$$$$$$$$$$$$$$$$$$$$$$$$$$$$$$$$$$$$$$$$$$$$$$$$$$$$$$$$$$$$",
"$$$$$$$$$$$$$$$$$$$$$$$$$$$$$$$$$$$$$$$$$$$$$$$$$$$$$$$$$$$$$$$$",
"$$$$$$$$$$$$$$$$$$$$$$$$$$$$$$$$$$$$$$$$$$$$$$$$$$$$$$$$$$$$$$$$"
};
