/* XPM */
static char *result[] = {
/* columns rows colors chars-per-pixel */
"64 64 11 1 ",
"  c #22B14C",
". c #FFCB0D",
"X c #FFC90E",
"o c #FFCB0E",
"O c #FFCD0D",
"+ c #FFCE0C",
"@ c #FFDE07",
"# c #FFDA08",
"$ c #FFE205",
"% c #FFE704",
"& c #FFF200",
/* pixels */
"                                                                ",
"                                                                ",
"                                                                ",
"                                                                ",
"                                                                ",
"                                                                ",
"                         XXXXXXXXXXXXX                          ",
"                       XXXXXXXXXXXXXXXXX                        ",
"                     XXXXXXXXXXXXXXXXXXXXX                      ",
"                   XXXXXXXXXXXXXXXXXXXXXXXXX                    ",
"                  XXXXXXXXXXXXXXXXXXXXXXXXXXX                   ",
"                 XXXXXXXXXXXXXXXXXXXXXXXXXXXXX                  ",
"                XXXXXXXXXXXXXXXXXXXXXXXXXXXXXXXX                ",
"               XXXXXXXXXXXXXXXXXXXXXXXXXXXXXXXXX                ",
"              XXXXXXXXXXXXX&&&&&&&&&XXXXXXXXXXXXX               ",
"             XXXXXXXXXXXX&&&&&&&&&&&&&XXXXXXXXXXXX              ",
"            XXXXXXXXXXX&&&&&&&&&&&&&&&&&XXXXXXXXXXX             ",
"            XXXXXXXXXX&&&&&&&&&&&&&&&&&&&XXXXXXXXXX             ",
"           XXXXXXXXXX&&&&&&&&&&&&&&&&&&&&&XXXXXXXXXX            ",
"           XXXXXXXXX&&&&&&&&&&&&&&&&&&&&&&&XXXXXXXXX            ",
"          XXXXXXXXX&&&&&&&&&&&&&&&&&&&&&&&&&XXXXXXXXX           ",
"          XXXXXXXXX&&&&&&&&&&&&&&&&&&&&&&&&&XXXXXXXXX           ",
"          XXXXXXXX&&&&&&&&&&&%+XXXXX+$&&&&&&&XXXXXXXX           ",
"         XXXXXXXXX&&&&&&&&&&%.XXXXXXXo&&&&&&&XXXXXXXXX          ",
"         XXXXXXXX&&&&&&&&&%+XXXXXXXXX#&&&&&&&&XXXXXXXX          ",
"         XXXXXXXX&&&&&&&&&OXXXXX+$&&&&&&&&&&&&XXXXXXXX          ",
"         XXXXXXXX&&&&%+XXXXXXXXXXo&&&&&&&&&&&&XXXXXXXX          ",
"         XXXXXXXX&&&&+XXXXXXXXXXX#&&&&&&&&&&&&XXXXXXXX          ",
"         XXXXXXXX&&&&@XXXXXXXXX#&&&&&&&&&&&&&&XXXXXXXX          ",
"         XXXXXXXX&&&&&&&&XXX&&&&&&&&&&&&&&&&&&XXXXXXXX          ",
"         XXXXXXXX&&&&%+XXXXXXXX+$&&&&&&&&&&&&&XXXXXXXX          ",
"         XXXXXXXX&&&&+XXXXXXXXXXo&&&&&&&&&&&&&XXXXXXXX          ",
"         XXXXXXXX&&&&@XXXXXXXXXX#&&&&&&&&&&&&&XXXXXXXX          ",
"         XXXXXXXX&&&&&&&&XXX$&&&&&&&&&&&&&&&&&XXXXXXXX          ",
"         XXXXXXXX&&&&&&&&oXXo$&&&&&&&&&&&&&&&&XXXXXXXX          ",
"         XXXXXXXX&&&&&&&&@XXXXXXXXXX+$&&&&&&&&XXXXXXXX          ",
"         XXXXXXXXX&&&&&&&&@XXXXXXXXXXo&&&&&&&XXXXXXXXX          ",
"          XXXXXXXX&&&&&&&&&@XXXXXXXXX#&&&&&&&XXXXXXXX           ",
"          XXXXXXXXX&&&&&&&&&&&&&&&&&&&&&&&&&XXXXXXXXX           ",
"          XXXXXXXXX&&&&&&&&&&&&&&&&&&&&&&&&&XXXXXXXXX           ",
"           XXXXXXXXX&&&&&&&&&&&&&&&&&&&&&&&XXXXXXXXX            ",
"           XXXXXXXXXX&&&&&&&&&&&&&&&&&&&&&XXXXXXXXXX            ",
"            XXXXXXXXXX&&&&&&&&&&&&&&&&&&&XXXXXXXXXX             ",
"            XXXXXXXXXXX&&&&&&&&&&&&&&&&&XXXXXXXXXXX             ",
"             XXXXXXXXXXX&&&&&&&&&&&&&&XXXXXXXXXXXX              ",
"              XXXXXXXXXXXXX&&&&&&&&&XXXXXXXXXXXXX               ",
"               XXXXXXXXXXXXXXXX&XXXXXXXXXXXXXXXXX               ",
"               XXXXXXXXXXXXXXXXXXXXXXXXXXXXXXXXX                ",
"                 XXXXXXXXXXXXXXXXXXXXXXXXXXXXX                  ",
"                  XXXXXXXXXXXXXXXXXXXXXXXXXXX                   ",
"                   XXXXXXXXXXXXXXXXXXXXXXXXX                    ",
"                     XXXXXXXXXXXXXXXXXXXXX                      ",
"                      XXXXXXXXXXXXXXXXXXX                       ",
"                         XXXXXXXXXXXXX                          ",
"                                                                ",
"                                                                ",
"                                                                ",
"                                                                ",
"                                                                ",
"                                                                ",
"                                                                ",
"                                                                ",
"                                                                ",
"                                                                "
};
