/* XPM */
static char *result[] = {
/* columns rows colors chars-per-pixel */
"64 64 3 1 ",
"  c black",
". c #8C4600",
"X c #FF8000",
/* pixels */
"XXXXXXXXXXXXXXXXXXXXX.............................XXXXXXXXXXXXXX",
"XXXXXXXXXXXXXXXXXXX................................XXXXXXXXXXXXX",
"XXXXXXXXXXXXXXXXXX..................................XXXXXXXXXXXX",
"XXXXXXXXXXXXXXXXXX...................................XXXXXXXXXXX",
"XXXXXXXXXXXXXXXXX.....................................XXXXXXXXXX",
"XXXXXXXXXXXXXXXX......................................XXXXXXXXXX",
"XXXXXXXXXXXXXXXX.......................................XXXXXXXXX",
"XXXXXXXXXXXXXXXX.......................................XXXXXXXXX",
"XXXXXXXXXXXXXXX........................................XXXXXXXXX",
"XXXXXXXXXXXXXXX........................................XXXXXXXXX",
"XXXXXXXXXXXXXXX.........................................XXXXXXXX",
"XXXXXXXXXXXXXXX.........................................XXXXXXXX",
"XXXXXXXXXXXXXXX.........................................XXXXXXXX",
"XXXXXXXXXXXXXXX.........................................XXXXXXXX",
"XXXXXXXXXXXXXXX.........................................XXXXXXXX",
"XXXXXXXXXXXXXXX.........................................XXXXXXXX",
"XXXXXXXXXXXXXXX.........................................XXXXXXXX",
"XXXXXXXXXXXXXXX.........................................XXXXXXXX",
"XXXXXXXXXXXXXXX.........................................XXXXXXXX",
"XXXXXXXXXXXXXXX.........................................XXXXXXXX",
"XXXXXXXXXXXXXXX.........................................XXXXXXXX",
"XXXXXXXXXXXXXXX.........................................XXXXXXXX",
"XXXXXXXXXXXXXXX.........................................XXXXXXXX",
"XXXXXXXXXXXXXXX............................    .........XXXXXXXX",
"XXXXXXXXXXXXXXX...........................      ........XXXXXXXX",
"XXXXXXXXXXXXXXX..........................        .......XXXXXXXX",
"XXXXXXXXXXXXXXX..........................        .......XXXXXXXX",
"XXXXXXXXXXXXXXX.........................          ......XXXXXXXX",
"XXXXXXXXXXXXXXX.........................          ......XXXXXXXX",
"XXXXXXXXXXXXXXX.........................          ......XXXXXXXX",
"XXXXXXXXXXXXXXX.........................          ......XXXXXXXX",
"XXXXXXXXXXXXXXX.........................          ......XXXXXXXX",
"XXXXXXXXXXXXXXX.........................          ......XXXXXXXX",
"XXXXXXXXXXXXXXX..........................        .......XXXXXXXX",
"XXXXXXXXXXXXXXX..........................        .......XXXXXXXX",
"XXXXXXXXXXXXXXX...........................      ........XXXXXXXX",
"XXXXXXXXXXXXXXX............................    .........XXXXXXXX",
"XXXXXXXXXXXXXXX.........................................XXXXXXXX",
"XXXXXXXXXXXXXXX.........................................XXXXXXXX",
"XXXXXXXXXXXXXXX.........................................XXXXXXXX",
"XXXXXXXXXXXXXXX.........................................XXXXXXXX",
"XXXXXXXXXXXXXXX.........................................XXXXXXXX",
"XXXXXXXXXXXXXXX.........................................XXXXXXXX",
"XXXXXXXXXXXXXXX.........................................XXXXXXXX",
"XXXXXXXXXXXXXXX.........................................XXXXXXXX",
"XXXXXXXXXXXXXXX.........................................XXXXXXXX",
"XXXXXXXXXXXXXXX.........................................XXXXXXXX",
"XXXXXXXXXXXXXXX.........................................XXXXXXXX",
"XXXXXXXXXXXXXXX.........................................XXXXXXXX",
"XXXXXXXXXXXXXXX.........................................XXXXXXXX",
"XXXXXXXXXXXXXXX.........................................XXXXXXXX",
"XXXXXXXXXXXXXXX.........................................XXXXXXXX",
"XXXXXXXXXXXXXXX.........................................XXXXXXXX",
"XXXXXXXXXXXXXXX.........................................XXXXXXXX",
"XXXXXXXXXXXXXXX........................................XXXXXXXXX",
"XXXXXXXXXXXXXXX........................................XXXXXXXXX",
"XXXXXXXXXXXXXXXX.......................................XXXXXXXXX",
"XXXXXXXXXXXXXXXX.......................................XXXXXXXXX",
"XXXXXXXXXXXXXXXX......................................XXXXXXXXXX",
"XXXXXXXXXXXXXXXXX.....................................XXXXXXXXXX",
"XXXXXXXXXXXXXXXXX.....................................XXXXXXXXXX",
"XXXXXXXXXXXXXXXXXX...................................XXXXXXXXXXX",
"XXXXXXXXXXXXXXXXXXX.................................XXXXXXXXXXXX",
"XXXXXXXXXXXXXXXXXXXX...............................XXXXXXXXXXXXX"
};
