/* XPM */
static char *result[] = {
/* columns rows colors chars-per-pixel */
"64 64 2 1 ",
"  c gray50",
". c #C3C3C3",
/* pixels */
"                  .......................                       ",
"                  .......................                       ",
"                  ......................                        ",
"                  .......................                       ",
"                 ........................                       ",
"               ...........................                      ",
"................................................................",
"................................................................",
"...............                         ........................",
".............                              .....................",
"............                                ....................",
"............                                ....................",
"...........                                 ....................",
"............                                ....................",
"............                                ....................",
".............                              .....................",
"................................................................",
"................................................................",
"................................................................",
"................................................................",
"................................................................",
"................................................................",
"................................................................",
"...                    .................                  ......",
".                         ............                       ...",
"                           ..........                         ..",
"                           ..........                         ..",
"                           .........                          ..",
"                           ..........                         ..",
"                           ..........                         ..",
".                         ............                       ...",
"................................................................",
"................................................................",
"................................................................",
"................................................................",
"................................................................",
"...................                    .........................",
".................                         ......................",
"................                           .....................",
"................                           .....................",
"...............                            .....................",
"................                           .....................",
"................                           .....................",
".................                         ......................",
"................................................................",
"................................................................",
"................................................................",
"................................................................",
"      ......................................                    ",
"         ................................                       ",
"          ..............................                        ",
"          ..............................                        ",
"          ..............................                        ",
"          ..............................                        ",
"          .........             ........                        ",
"         ........                  ......                       ",
"................                    ............................",
"................                    ............................",
"...............                     ............................",
"................                    ............................",
"................                    ............................",
".................                  .............................",
"................................................................",
"................................................................"
};
